<?xml version="1.0" encoding="UTF-8"?> <svg xmlns="http://www.w3.org/2000/svg" width="138" height="33" fill="none"> <path d="M4.053 9.932c2.748-.723 5.77 1.394 6.22 4.202.158.857.1 1.74-.17 2.567a5.171 5.171 0 0 1-1.37 2.165c-2.072 2.345-6.172 1.721-7.826-.808a5.34 5.34 0 0 1 .513-6.603 5.345 5.345 0 0 1 2.633-1.523zM91.465.008h5.342v5.648c2.086.047 4.24-.026 6.33 0 .025 1.574 0 3.17 0 4.732h-6.322c.034 2.637 0 5.334 0 7.966.01.381.15.746.395 1.035.244.288.58.482.95.548 1.61.362 3.391-.099 4.985-.236v4.77a24.015 24.015 0 0 1-6.156.405 5.778 5.778 0 0 1-2.52-.697 5.868 5.868 0 0 1-1.97-1.742 6.129 6.129 0 0 1-1.03-3.618V3.01c.004-.886-.004-2.103-.004-3.002zM21.148 5.302a8.73 8.73 0 0 1 6.313.71 10.366 10.366 0 0 1 3.403 3.186 10.549 10.549 0 0 1 1.685 4.377 18.954 18.954 0 0 1-.068 3.798 12.876 12.876 0 0 1-1.42 3.794c-1.764 2.58-4.766 4.4-7.903 4.383-1.849 0-3.413-1.058-5.045-1.772-.098 2.74-.038 5.485-.03 8.229-1.87-.052-3.74 0-5.605-.034-.093-8.776 0-17.551-.055-26.327h5.228c.038.43.08.89.127 1.334 1.09-.61 2.12-1.368 3.362-1.665l.008-.013zm-.347 5.455c-1.34.701-2.765 1.858-2.87 3.501-.183 1.381-.026 2.895.847 4.035 1.098 1.497 3.108 2.056 4.872 1.721 1.106-.202 1.963-1.032 2.67-1.863 1.086-1.29 1.06-3.2.616-4.753-.802-2.49-3.842-3.493-6.127-2.633l-.008-.008zM52.26 6.684a9.032 9.032 0 0 1 3.874-1.567 8.982 8.982 0 0 1 4.156.35c1.123.266 1.93 1.152 2.904 1.72l.09-1.48c1.695-.055 3.391-.073 5.053 0 .045 6.376.045 12.752 0 19.13a69.15 69.15 0 0 1-5.262 0c-.055-.538-.11-1.075-.16-1.613-1.51 1.32-3.392 2.318-5.432 2.31-9.069-.043-12.6-13.851-5.219-18.867l-.004.017zm5.062 3.884c-1.79.289-3.417 1.794-3.578 3.67-.034 1.135-.174 2.374.424 3.402 1.34 2.732 5.47 3.244 7.525 1.08 1.989-1.996 1.726-5.807-.585-7.442a4.661 4.661 0 0 0-3.786-.693v-.017zM79.11 5.214c3.816-.86 8.018.946 10.197 4.207-1.403 1.105-2.875 2.112-4.29 3.196-.849-.835-1.697-1.876-2.922-2.065-1.306-.194-2.769-.133-3.841.736-2.12 1.415-2.455 4.594-1.183 6.684 1.429 2.448 5.291 2.887 7.178.77.326-.327.644-.658.962-.99 1.349 1.192 2.968 1.988 4.355 3.133-.76 1.212-1.913 2.069-3.015 2.929a9.753 9.753 0 0 1-6.508 1.682c-5.003-.43-9.328-5.192-9.124-10.324a10.445 10.445 0 0 1 1.163-4.696 10.28 10.28 0 0 1 3.145-3.64 11.993 11.993 0 0 1 3.883-1.622zM112.888 5.146a9.975 9.975 0 0 1 5.578.639 10.145 10.145 0 0 1 4.382 3.56c1.509 1.957 1.941 4.555 1.793 6.977-.119 1.43-.54 2.819-1.234 4.07a9.967 9.967 0 0 1-2.79 3.182c-1.085.86-2.45 1.235-3.743 1.665-4.8 1.325-10.324-1.72-11.834-6.517-.915-3.011-.678-6.526 1.09-9.188a10.51 10.51 0 0 1 6.758-4.388zm.424 5.48c-1.641.564-3.273 1.98-3.332 3.872-.127 1.372 0 2.89.924 3.987 1.777 2.065 5.448 2.224 7.174 0 1.806-2.082 1.429-5.772-.908-7.312a4.834 4.834 0 0 0-3.858-.547zM42.703 5.896a7.9 7.9 0 0 1 4.134-.318c.13 1.804.14 3.615.03 5.42-1.455-.056-3.015-.228-4.359.43a4.33 4.33 0 0 0-1.4 1.617 4.402 4.402 0 0 0-.465 2.1c-.043 3.23.059 6.452-.038 9.683a64.683 64.683 0 0 1-5.326 0c-.085-5.06 0-10.118-.034-15.177 0-1.325 0-2.65.039-3.97a64.724 64.724 0 0 1 5.087 0c.026.632.047 1.265.06 1.897a7.212 7.212 0 0 1 2.272-1.682zM130.696 9.932c2.747-.723 5.774 1.394 6.224 4.202.155.857.095 1.74-.175 2.567a5.2 5.2 0 0 1-1.368 2.165c-2.069 2.345-6.169 1.721-7.827-.808a5.332 5.332 0 0 1-.89-3.394 5.316 5.316 0 0 1 1.403-3.21 5.344 5.344 0 0 1 2.633-1.522z" fill="#2D2928"></path> </svg> 