<?xml version="1.0" encoding="UTF-8"?> <svg xmlns="http://www.w3.org/2000/svg" width="51" height="33" fill="none"> <path fill-rule="evenodd" clip-rule="evenodd" d="m14.836 27.26-.104-.365h1.215l1.392 3.306v-2.932l-.165-.374h1.423l-.144.374v4.464l.103.362h-1.212l-1.392-3.227v2.856l.164.374h-1.422l.144-.374v-4.463h-.002zM25.695 4.816c-.376 1.395 1.147 2.968 2.887.279l-.434-.318c.365-.589.936-.901 1.81-.837a4.32 4.32 0 0 0-1.348 1.674c-.988 1.894 1.089 3.325 2.448 1.222l-.74-.558c.726-1.17 1.865-1.791 3.6-1.674-2.39 1.76-3.83 4.742-3.927 9.485a18.28 18.28 0 0 0-9.124 0c-.098-4.743-1.537-7.722-3.926-9.485 1.734-.114 2.873.508 3.6 1.674l-.74.558c1.358 2.103 3.435.672 2.447-1.222h.014a4.34 4.34 0 0 0-1.345-1.674c.874-.056 1.445.257 1.81.837l-.438.318c1.738 2.686 3.247 1.138 2.88-.262-.54-.09-1.014-.558-.925-1.1l.618-3.724V3.41a.541.541 0 0 0 .54.541.556.556 0 0 0 .543-.541V0l.619 3.724c.086.525-.354.98-.872 1.091h.003zM21.71 9.942l-.1.304h-.317l.259.19-.1.301.258-.187.256.187-.097-.3.256-.19h-.328l-.098-.305h.011zm7.518 0-.1.304h-.317l.259.19-.1.301.258-.187.256.187-.1-.3.26-.19h-.33l-.097-.305h.011zm-3.795-1.464v3.373c-.036.094-.072.186-.106.278.351 0 .702 0 1.053.028-.042-.097-.08-.195-.123-.279V9.725c.17.421.34.837.51 1.264l.515 1.283c.298.053.596.114.897.184l-.075-.28v-3.33l.105-.243c-.35-.103-.701-.192-1.052-.262l.12.301v2.199c-.17-.441-.343-.882-.513-1.317-.17-.435-.342-.868-.512-1.297a13.742 13.742 0 0 0-.897-.023l.075.28.003-.006zm-1.868.686v2.433c.186-.028.376-.056.557-.079.061-.072.125-.139.186-.212v-.546l-.159-.184-.59.446v-.812c.25-.192.501-.38.75-.558v-.421l-.187-.167c-.187.028-.376.055-.557.092v.008zm-.891-.558.058.251v3.323l-.058.279.125-.025c.256-.053.51-.098.766-.14.334-.05.665-.09 1-.12l.556-.558v-1.219l-.328-.26.328-.303V8.76a41.505 41.505 0 0 0-.557-.491c-.334.039-.665.086-1 .145-.255.053-.509.108-.765.173l-.125.03v-.01zM.078 29.702a134.702 134.702 0 0 1 13.535-1.808v-.901A112.421 112.421 0 0 0 .078 29.225V29.702zm37.437-1.736c4.496.382 8.99.96 13.485 1.736v-.466c-4.452-.971-8.954-1.7-13.485-2.185v.915zM7.345 15.884c.067.243.131.486.204.729-.234 1.394-.47 2.79-.696 4.21-.226 1.419-.46 2.886-.688 4.362-.112.257-.223.519-.334.781.835-.117 1.67-.217 2.506-.32a23.66 23.66 0 0 1-.173-.673c.053-.449.109-.898.17-1.345l1.392-.094c.061.424.123.837.19 1.266a78.5 78.5 0 0 0-.165.678l2.464-.243c-.11-.2-.215-.401-.317-.602l-.732-3.791c-.245-1.292-.482-2.6-.722-3.906.07-.206.142-.41.218-.614-1.114-.128-2.206-.279-3.305-.424l-.012-.014zm1.671 2.98c.067.488.14.973.203 1.459.064.485.14.962.21 1.442l-.803.017c.064-.491.126-.982.192-1.468.067-.485.128-.968.198-1.45zM.003 14.71l.278.05 1.749.313c.757.136 1.515.265 2.278.382a41.53 41.53 0 0 0 1.272 1.598V19.882c-.248.243-.498.494-.746.745.249.25.5.5.752.745v3.266c-.424.508-.846 1.025-1.267 1.551-.763.112-1.52.232-2.28.36l-1.75.299-.278.044c.036-.279.078-.58.123-.873V15.575a28.166 28.166 0 0 1-.134-.86l.003-.005zm2.03 2.566v7.144c.426-.044.852-.091 1.28-.133l.427-.558v-1.462c-.123-.184-.246-.368-.362-.558-.454.352-.903.717-1.348 1.091v-2.4c.572-.42 1.14-.829 1.704-1.227V18l-.429-.558-1.28-.142.008-.023zm10.926-.128-.167-.62c1.42.123 2.843.238 4.268.336.416.39.835.776 1.256 1.157V20.95c-.331.324-.663.648-.991.977.203.39.415.78.618 1.166.203.385.418.764.632 1.144.173.181.35.36.53.535l-2.707.143c.044-.196.091-.391.142-.586-.179-.371-.351-.742-.524-1.116-.172-.374-.345-.748-.518-1.116h-.657v2.323c.092.196.184.386.279.578l-2.417.182c.08-.212.161-.427.245-.64v-7.395l.01.003zm1.877 1.077v2.282h1.241l.443-.4v-1.394c-.159-.145-.309-.279-.462-.444l-1.222-.044zm4.786-1.216h.279l1.742.055c.76.023 1.518.04 2.281.042.42.346.843.69 1.27 1.032v2.06l-.746.557.746.533V23.662c-.425.333-.85.667-1.273 1.002-.763 0-1.52 0-2.277.03l-1.74.053h-.28c.04-.181.082-.365.129-.558v-6.662a16.79 16.79 0 0 1-.134-.538l.003.02zm2.03 1.531v4.743h1.28l.43-.371v-1.013c-.123-.128-.245-.26-.362-.39-.451.232-.9.467-1.348.705v-1.593c.557-.279 1.139-.574 1.704-.865v-.823l-.446-.362c-.428 0-.854-.02-1.283-.025l.025-.006zm4.232-1.395c.073.173.142.349.22.525v6.466c-.08.179-.161.355-.236.533 1.804.024 3.611.066 5.42.126.098-.536.193-1.074.296-1.616l-.627.143c-.985-.023-1.97-.048-2.954-.062v-1.79h1.649l.762.197v-1.802l-.701.187h-1.71v-1.565c.666 0 1.34-.014 2.01-.03l1.134.228c-.123-.558-.244-1.116-.365-1.674-1.634.067-3.266.093-4.9.118l.002.016zm6.43 1.005V23.662l1.225 1.27c.946.055 1.893.122 2.845.2l.836.764c.397-.34.794-.685 1.191-1.035l-.651-.794v-6.241c-.443-.402-.88-.795-1.317-1.186-.947.084-1.89.145-2.832.207-.434.435-.86.865-1.29 1.289l-.007.014zm1.904.588.401-.396.869-.033.41.368v4.396l-.494.383c-.253-.014-.51-.023-.757-.031l-.432-.413v-4.274h.003zm4.383-2.232.184.6v6.935c.423.472.835.954 1.267 1.443.957.1 1.917.21 2.879.332.428-.427.855-.868 1.28-1.317v-7.987l.168-.73-2.28.278c.06.223.122.444.188.664 0 1.116.017 2.215.02 3.323.003 1.107.017 2.217.025 3.325-.142.173-.278.346-.415.516-.3-.022-.601-.048-.902-.067-.12-.184-.242-.366-.365-.558v-6.366c.07-.226.142-.45.217-.672l-2.263.248-.003.034zm6.563-.811c.072.231.147.463.222.697v8.997c-.08.24-.161.48-.236.717 1.804.256 3.613.535 5.427.837.097-.837.192-1.674.295-2.511l-.632.181c-.986-.1-1.974-.2-2.954-.296v-2.61l1.654.033.762.312v-2.767c-.233.109-.467.21-.701.312-.577.025-1.147.05-1.715.07v-2.282c.67-.067 1.342-.142 2.013-.217.376.086.754.175 1.13.279-.122-.86-.245-1.711-.367-2.556-1.632.28-3.267.558-4.898.815v-.011zm5.708-3.426c-5.803 1.077-13.889 1.875-19.692 2.187v.96c5.97-.383 13.722-1.314 19.692-2.681v-.466zm-30 2.254v.943c2.999-.74 6.132-.74 9.13 0v-.943a17.714 17.714 0 0 0-9.13 0zM.002 12.269v.444c5.97 1.367 13.723 2.298 19.692 2.68v-.96c-5.802-.312-13.888-1.115-19.691-2.186v.022zm32.646 15.02-.1-.366h1.21l1.393 3.306v-2.932l-.164-.374h1.422l-.142.374v4.463l.103.363h-1.21l-1.393-3.228v2.857l.164.374H32.51l.144-.374v-4.463h-.005zm-3.796.43v3.626l.724.792h1.671l.81-.792V27.7l-.777-.778h-1.67l-.76.795h.002zm1.114.431.24-.242h.512l.24.242v2.695l-.279.254h-.445l-.257-.25v-2.735l-.01.037zm-1.787-.853.139-.374h-1.392l.139.374v4.463l-.14.371h1.393l-.14-.37v-4.464zm-4.28.58v3.881l-.14.37h1.393l-.14-.37v-3.88h.858l.669.178-.226-1.133h-3.726l-.222 1.133.668-.179h.866zm-4.049-.954h1.919l-.128.377.835 4.463.19.371h-1.46l.098-.37-.106-.718h-.821l-.103.717.103.371H18.9l.198-.37.835-4.464-.09-.377h.006zm.95 1.526-.24 1.598h.477L20.8 28.45z" fill="#2D2928"></path> </svg> 