<?xml version="1.0" encoding="UTF-8"?> <svg xmlns="http://www.w3.org/2000/svg" width="173" height="34" fill="none"> <path d="M3.43 24v3.69c0 .713.283 1.397.789 1.9a2.7 2.7 0 0 0 1.906.788H9.7l-6.204-6.33-.067-.047zm13.257-5.625c-.067-1.456-1.652-2.722-1.652-2.722L3.458 3.555a2.51 2.51 0 0 0-.029.38v2.951a9.054 9.054 0 0 0 .51 3.084c.33.857 1.237 1.5 1.867 2.132l.63.624c.515.528 1.04 1.047 1.56 1.57l1.384 1.4c.263.266.53.533.792.809l.034.033c.415.448.095.638.095.638-.253.219-.668-.352-.668-.352L3.43 10.637v2.922c-.01.394.005.788.043 1.18.042.496.125.988.248 1.47.349 1.148 1.713 2.11 2.53 2.928.53.533 1.059 1.061 1.584 1.594l1.432 1.428c.272.276.548.552.816.833l.033.038c.415.443.096.633.096.633-.253.219-.669-.347-.669-.347l-6.108-6.097v5.092c.012.396.127.781.334 1.119l6.681 6.787-.062.157h6.304V18.475a.506.506 0 0 1-.004-.1zM30.365 24.059l-6.204 6.33h3.574c.716 0 1.402-.283 1.908-.787a2.69 2.69 0 0 0 .793-1.902v-3.689l-.071.048zm-13.23-5.545v11.899h6.305l-.062-.157 6.681-6.787c.205-.34.321-.724.34-1.119v-5.092l-6.114 6.097s-.415.566-.668.347c0 0-.32-.19.095-.633l.034-.038.816-.833 1.431-1.428c.525-.533 1.055-1.061 1.585-1.594.816-.819 2.18-1.78 2.529-2.927.126-.482.209-.974.248-1.47.04-.393.056-.787.048-1.181v-2.922l-6.204 6.187s-.415.571-.668.352c0 0-.32-.19.095-.638l.034-.033c.262-.276.53-.543.792-.81l1.388-1.398c.516-.524 1.04-1.043 1.561-1.57l.625-.624c.63-.633 1.537-1.276 1.866-2.133.35-.99.524-2.034.516-3.084v-2.95a2.505 2.505 0 0 0-.034-.381L18.801 15.692s-1.589 1.266-1.65 2.722a.803.803 0 0 1-.034.1h.019zM44.567 9.65c.267-.88.954-.428.954-.428s1.78 1.351 6.681 4.454c4.902 3.103 10.977-1.204 10.977-1.204L48.699 2.211a36.565 36.565 0 0 1-14.479 9.124l18.512 12.94c-.272.886-.954.434-.954.434s-1.785-1.352-6.681-4.455C40.2 17.15 34.12 21.458 34.12 21.458l14.484 10.261a36.532 36.532 0 0 1 14.48-9.124L44.567 9.65z" fill="#2D2928"></path> <path d="M32.817 1.102H1v31.735h31.817V1.102z" stroke="#2D2928" stroke-width=".4"></path> <path d="M64.572 1.11H32.75v31.735h31.822V1.109z" stroke="#2D2928" stroke-width=".4"></path> <path d="m67.24 27.263 8.046.043c.139.757-.08.752.344 1.147a3.044 3.044 0 0 0 2.553.605c.706-.124 1.8-.343 1.852-1.214.057-.952-.602-1.285-1.432-1.39-1.14-.147-2.295-.19-3.436-.371-2.935-.476-4.496-.695-5.75-1.49-1.256-.794-1.365-2.532-1.365-3.764a3.393 3.393 0 0 1 .954-2.294 6.455 6.455 0 0 1 2.916-1.704 18.304 18.304 0 0 1 5.326-.619c2.768 0 4.879.375 6.333 1.123 1.431.747 2.319 2.418 2.596 4.046h-6.844c.053-.095-.129-.533-.157-.638-.263-.952-1.184-1.223-2.057-1.428a3.01 3.01 0 0 0-2.19.224c-.392.238-.697.476-.697.842a.837.837 0 0 0 .477.676 7.025 7.025 0 0 0 2.248.58c2.133.279 4.238.744 6.29 1.39a6.445 6.445 0 0 1 2.763 1.752c.561.648.87 1.476.868 2.332a4.087 4.087 0 0 1-1.154 2.799 7.162 7.162 0 0 1-3.222 1.946c-1.695.48-3.454.701-5.216.657-3.684 0-6.23-.516-7.636-1.547-1.417-1.028-2.224-2.108-2.41-3.703zM99.873 16.516h5.947v11.146c0 2.288-1.432 3.91-4.295 4.864-1.318.433-2.897.476-4.687.476-1.608 0-3.05.029-4.38-.319-3.138-1.247-4.705-2.913-4.702-4.997V16.539h5.985v9.543c0 1.742.229 3.032 3.097 3.032s2.978-1.347 2.978-3.09l.057-9.508zM138.744 16.516h5.942v11.146c0 2.288-1.432 3.91-4.295 4.864-1.322.433-2.902.476-4.692.476-1.603 0-3.044.029-4.376-.319-3.14-1.247-4.71-2.913-4.71-4.997V16.539h5.989v9.543c0 1.742.234 3.032 3.097 3.032 2.864 0 2.978-1.347 2.978-3.09l.067-9.508zM107.042 16.625h18.416v3.427l-9 8.062h9v4.488h-18.416v-3.86l8.791-7.948h-8.772l-.019-4.169zM146.16 32.57V16.578h5.899v5.911l6.366-5.91h7.388l-8.476 7.743 8.829 8.233h-7.97l-6.075-5.71.057 5.71-6.018.015zM172.9 16.578v15.977h-5.889V16.578h5.889zM67.34 1.39h8.59l3.308 7.83 3.288-7.83h8.59v12.85h-5.335V4.442l-4.124 9.8h-4.83l-4.113-9.8v9.8h-5.34L67.34 1.39zM104.503 12.371h-6.166l-.869 2.128h-5.54l6.605-12.85h5.955l6.605 12.85h-5.698l-.892-2.128zm-1.136-2.784-1.909-4.617-1.909 4.617h3.818zM112.391 14.497V1.647h9.068c1.293-.035 2.585.07 3.856.314a4.215 4.215 0 0 1 2.152 1.171 2.904 2.904 0 0 1 .816 2.08 2.852 2.852 0 0 1-.625 1.847c-.467.55-1.06.98-1.728 1.256a8.126 8.126 0 0 1-1.909.51c.495.1.976.26 1.432.475.313.193.604.42.869.676.278.243.532.512.758.804l2.654 3.727h-6.147l-2.916-3.936a3.323 3.323 0 0 0-.983-.995 2.979 2.979 0 0 0-1.336-.295h-.477v5.236l-5.484-.02zm5.46-7.657h2.3c.48-.03.959-.088 1.432-.176.33-.039.639-.18.883-.405a1 1 0 0 0 .343-.743 1.047 1.047 0 0 0-.544-.951 4.225 4.225 0 0 0-2.033-.334h-2.386l.005 2.609zM141.879 1.516h5.431v7.662a4.882 4.882 0 0 1-.477 2.151 4.77 4.77 0 0 1-1.527 1.771 6.58 6.58 0 0 1-2.181 1.066 14.8 14.8 0 0 1-3.818.428c-.859 0-1.794-.042-2.806-.128a9.567 9.567 0 0 1-2.544-.524 6.338 6.338 0 0 1-1.871-1.109 4.023 4.023 0 0 1-1.159-1.48 5.88 5.88 0 0 1-.506-2.175V1.516h5.412v7.843a1.927 1.927 0 0 0 .797 1.642c.659.43 1.438.636 2.224.59a3.7 3.7 0 0 0 2.209-.58 1.928 1.928 0 0 0 .802-1.652l.014-7.843zM148.441 1h16.537v4.417h-4.921v9.08h-6.399V5.294h-5.217V1zM166.776 1.352h5.942v13.13h-5.942V1.353z" fill="#2D2928"></path> </svg> 