<?xml version="1.0" encoding="UTF-8"?> <svg xmlns="http://www.w3.org/2000/svg" width="105" height="32" fill="none"> <path fill-rule="evenodd" clip-rule="evenodd" d="M65.106 24.72c-6.1 4.5-14.94 6.891-22.553 6.891a40.821 40.821 0 0 1-27.555-10.51c-.571-.516-.059-1.22.627-.818a55.444 55.444 0 0 0 27.569 7.315 54.86 54.86 0 0 0 21.028-4.304c1.024-.439 1.894.678.884 1.426z" fill="#2D2928"></path> <path fill-rule="evenodd" clip-rule="evenodd" d="M67.645 21.815c-.781-.999-5.16-.472-7.124-.236-.593.07-.689-.45-.15-.826 3.49-2.454 9.212-1.743 9.876-.925.663.819-.174 6.564-3.446 9.302-.505.42-.984.195-.76-.368.734-1.828 2.385-5.945 1.604-6.947zM60.662 3.43V1.05a.588.588 0 0 1 .604-.604h10.687a.597.597 0 0 1 .62.6v2.042c0 .343-.292.792-.804 1.5l-5.528 7.901c2.053-.048 4.227.258 6.092 1.305a1.106 1.106 0 0 1 .567.932v2.543c0 .368-.368.737-.785.545a12.29 12.29 0 0 0-11.284 0c-.368.2-.763-.203-.763-.553v-2.413a2.879 2.879 0 0 1 .387-1.637l6.409-9.213h-5.58a.593.593 0 0 1-.622-.567zM21.705 18.318h-3.261a.611.611 0 0 1-.583-.55V1.098a.613.613 0 0 1 .627-.6h3.025a.608.608 0 0 1 .59.56V3.23h.063C22.954 1.127 24.439.143 26.44.143c2.002 0 3.317.984 4.216 3.088A4.614 4.614 0 0 1 35.145.143a4.61 4.61 0 0 1 3.759 1.842c1.032 1.4.818 3.438.818 5.226v10.525a.612.612 0 0 1-.627.597H35.85a.605.605 0 0 1-.582-.597V8.89c0-.7.059-2.454-.093-3.121-.243-1.106-.969-1.441-1.908-1.441a2.152 2.152 0 0 0-1.943 1.37c-.335.841-.302 2.245-.302 3.192v8.845a.61.61 0 0 1-.626.597h-3.247a.605.605 0 0 1-.582-.597V8.89c0-1.842.302-4.595-2.001-4.595S22.32 6.964 22.32 8.89v8.845a.608.608 0 0 1-.615.582zM81.752.14c4.824 0 7.43 4.143 7.43 9.405 0 5.09-2.879 9.125-7.43 9.125-4.732 0-7.308-4.142-7.308-9.298S77.04.141 81.752.141zm.03 3.406c-2.396 0-2.547 3.261-2.547 5.3 0 2.037-.03 6.386 2.517 6.386 2.547 0 2.639-3.512 2.639-5.65 0-1.404-.06-3.088-.487-4.422-.36-1.157-1.09-1.614-2.122-1.614zM95.435 18.313H92.2a.604.604 0 0 1-.582-.597V1.036a.619.619 0 0 1 .627-.545h3.01a.615.615 0 0 1 .58.465v2.55h.062c.906-2.278 2.181-3.369 4.422-3.369a4.263 4.263 0 0 1 3.792 1.968c.848 1.33.848 3.579.848 5.193V17.79a.617.617 0 0 1-.623.523h-3.258a.618.618 0 0 1-.578-.523V8.735c0-1.824.213-4.492-2.031-4.492a2.122 2.122 0 0 0-1.88 1.334 7.37 7.37 0 0 0-.515 3.158v8.98a.623.623 0 0 1-.638.598zM52.149 10.355c0 1.264.029 2.318-.608 3.446a2.642 2.642 0 0 1-2.252 1.474c-1.246 0-1.975-.95-1.975-2.358 0-2.768 2.483-3.27 4.835-3.27v.708zm3.276 7.92a.682.682 0 0 1-.77.077 7.926 7.926 0 0 1-1.843-2.166c-1.784 1.816-3.048 2.362-5.358 2.362-2.735 0-4.861-1.688-4.861-5.064a5.528 5.528 0 0 1 3.464-5.31c1.761-.774 4.223-.914 6.11-1.106v-.424c0-.773.059-1.687-.394-2.354a2.178 2.178 0 0 0-1.825-.844c-1.241 0-2.34.634-2.612 1.95a.682.682 0 0 1-.564.596l-3.151-.339a.568.568 0 0 1-.483-.678C43.875 1.153 47.31 0 50.402 0c1.58 0 3.648.42 4.894 1.618 1.58 1.474 1.43 3.445 1.43 5.59v5.06c0 1.522.63 2.193 1.227 3.01a.615.615 0 0 1 0 .867 137.07 137.07 0 0 0-2.491 2.156l-.037-.026zM9.559 10.355c0 1.264.03 2.318-.608 3.446a2.639 2.639 0 0 1-2.248 1.474c-1.246 0-1.976-.95-1.976-2.358 0-2.768 2.48-3.27 4.832-3.27v.708zm3.276 7.92a.682.682 0 0 1-.77.077 7.925 7.925 0 0 1-1.843-2.166c-1.784 1.816-3.048 2.362-5.355 2.362-2.738 0-4.864-1.688-4.864-5.064a5.528 5.528 0 0 1 3.464-5.31c1.765-.774 4.227-.914 6.11-1.106v-.424c0-.773.06-1.687-.394-2.354a2.178 2.178 0 0 0-1.843-.844c-1.238 0-2.34.634-2.613 1.95a.682.682 0 0 1-.563.596l-3.148-.339a.568.568 0 0 1-.486-.678C1.267 1.153 4.705 0 7.794 0c1.58 0 3.648.42 4.894 1.618 1.58 1.474 1.43 3.445 1.43 5.59v5.06c0 1.522.63 2.193 1.226 3.01a.615.615 0 0 1 0 .867c-.663.556-1.842 1.577-2.49 2.156l-.02-.026z" fill="#2D2928"></path> </svg> 