<?xml version="1.0" encoding="UTF-8"?> <svg xmlns="http://www.w3.org/2000/svg" width="149" height="33" fill="none"> <path d="M88.125 8.08c-.847.881-1.72 1.736-2.353 2.803.881-.607 1.55-1.537 2.735-1.605-.989.925-2.141 1.657-3.051 2.661l.068.128c.126-.036.248-.085.363-.146a5.519 5.519 0 0 1 1.98-.813c.088-.019.18-.019.368-.034-.897.486-1.71.925-2.52 1.37-.248.106-.48.248-.688.42a2.037 2.037 0 0 0-.523.785 1.473 1.473 0 0 1-.946 1.009 5.031 5.031 0 0 0-1.864 1.25c-.217.235-.261.391.042.619.57.435 1.109.91 1.61 1.425.265.339.482.713.646 1.11.042.082 0 .204 0 .31a4.412 4.412 0 0 0 0 .851c.097.523-.024.868-.458 1.046-.026-.029-.07-.057-.083-.094-.316-1.017-1.166-1.428-2.055-1.778-.45-.177-.886.016-1.168.476-.283.46-.589.993-.892 1.485a.37.37 0 0 0 .016.48 10.53 10.53 0 0 1 1.743 3.015c.275.753.87 1.017 1.619 1.087.632.058 1.234.037 1.749-.397.133-.112.26-.235.428-.4.445 0 1.18-.371 1.323-.727a2.092 2.092 0 0 0 1.461-.494 3.303 3.303 0 0 0 1.655-.227l1.788.306v.11c-.055.023-.112.073-.164.07-1.449-.094-2.73.429-3.974 1.077-1.443.75-2.65 1.83-3.937 2.81-1.396 1.062-2.79 2.134-4.246 3.109a6.274 6.274 0 0 1-3.968 1.16c-1.092-.075-1.6-.522-1.717-1.568.276.029.553.041.831.037.261-.016.59.094.73-.262.548.162 1.353-.097 1.505-.476a1.412 1.412 0 0 0 1.307-.65c.507 0 1.158-.37 1.263-.662a6.03 6.03 0 0 0 .648-.24c.3-.155.358-.374.141-.625a1.78 1.78 0 0 0-.549-.369c-.055-.026-.19.052-.261.115-.077.106-.142.22-.194.34l-.551-.403-.139.481-.46-.68c-.292.317-.478.165-.653 0a4.432 4.432 0 0 1-.382-.412c-.12-.152-.261-.296-.387.031-.384-.523-.883-.923-.839-1.67l-1.61.742-.05-.094.332-.434-.698-.092c.18-.353.348-.66.497-.975.038-.116.062-.236.073-.358a1.645 1.645 0 0 0-.374-.031c-.755.08-1.51.175-2.266.261l-.032-.115.588-.355c-.734-.12-1.424.245-2.073-.196l.481-.21v-.128a1.93 1.93 0 0 0-.562-.133c-.724.06-1.448.154-2.172.235-.724.081-1.472.165-2.21.238a1.645 1.645 0 0 1-.391-.07l.447-.298-.646-.134.557-.193-.523-.285 1.046-.126-.212-.261 1.425-.207v-.083l-.67-.233c1.323.13 2.657.413 3.964.094a15.244 15.244 0 0 0 3.683-1.474.784.784 0 0 0-.82-.018c-.234.115-.445.261-.678.384-.56.261-.745.162-.784-.484-.113.016-.222.029-.327.05-.243.05-.48.118-.724.154-.243.037-.377-.05-.363-.306.015-.34-.176-.423-.471-.402a8.07 8.07 0 0 1-.784.018 1.122 1.122 0 0 1-1.137-.96c-.037-.2-.087-.295-.309-.344a1.174 1.174 0 0 1-.483-.338 11.073 11.073 0 0 1-2.95-4.744 7.58 7.58 0 0 1-.127-1.101.586.586 0 0 0-.178-.314c-.32-.3-.651-.588-1.012-.907l.473-.348-.622-.823.547-.282c-.183-.18-.348-.335-.502-.497-.322-.34-.262-.523.185-.61.403-.078.813-.122 1.307-.19-.69-.484-1.71-.379-2.065-1.37l1.995.144.039-.149c-.784-.481-1.72-.784-2.222-1.694l3.472 1.067.06-.079a4.034 4.034 0 0 0-.47-.402c-.456-.293-.947-.523-1.386-.85-.396-.31-.773-.643-1.13-.996-.063-.058-.08-.16-.164-.33.169.027.335.07.496.129 1.15.57 2.293 1.155 3.446 1.717.167.081.499.152.556.076.194-.261-.128-.342-.26-.47-.657-.628-1.355-1.213-1.975-1.872a7.381 7.381 0 0 1-.844-1.292c-.044-.075 0-.209 0-.316.092.032.18.074.261.125l3.78 3.253c.142.117.285.3.56.094-.22-.262-.426-.51-.64-.75-.712-.785-1.42-1.585-1.83-2.58-.239-.47-.33-1-.262-1.522.112.105.213.22.303.345.855 1.432 1.953 2.685 3.007 3.968.204.248.243.248.523.15-.855-1.478-2.152-2.78-1.92-4.683l.11-.06.346.604 2.596 4.58c.018.031.028.07.057.089.123.08.261.157.376.235 0-.146.055-.319 0-.44a8.44 8.44 0 0 1-.8-3.398c.01-.153.034-.306.074-.454h.094c.162.522.319 1.02.489 1.526.36 1.08.742 2.157 1.095 3.242a3.43 3.43 0 0 0 1.205 1.618c.337.275.677.546 1.001.84.382.353.659.805.8 1.306.44 1.436.95 2.84 1.815 4.084.241.334.503.654.784.956.122.11.257.205.402.283l.094-.09a1.986 1.986 0 0 0-.164-.344 11.343 11.343 0 0 1-1.417-2.716.667.667 0 0 1 .086-.688 11.502 11.502 0 0 1 3.404-3.072c.227-.088.461-.156.7-.2a.64.64 0 0 0 .309-.21c.157-.225.225-.538.62-.42.065.02.164-.074.248-.118.084-.045.157-.131.24-.142.157-.015.335.058.47 0 .137-.057.244-.204.422-.366l.261.785.434-.894.134.036.143 1.177h.09l.658-1.538.162.04-.28 2.206.092.031c.5-.643.473-1.592 1.142-2.133l.115.037c-.086.363-.16.732-.261 1.09-.136.463-.311.915-.447 1.378-.02.149-.02.3 0 .45a2.11 2.11 0 0 0 .342-.299c.434-.585.845-1.184 1.284-1.764.133-.133.285-.247.45-.338l.093.09c-.308.522-.617 1.045-.928 1.568-.248.413-.504.823-.744 1.242a.614.614 0 0 0-.05.392c.834-.792 1.398-1.935 2.682-2.18zm-6.65 19.084c.308-.123.54-.201.76-.309.079-.039.191-.175.173-.214a.611.611 0 0 0-.262-.303c-.222-.102-1.072.172-1.268.415-.19-.14-.386-.407-.575-.405-.522.013-.784-.355-1.16-.575a.695.695 0 0 1-.346-.65c0-.398.035-.785.055-1.193 0-.214.034-.426.053-.64l-.128-.019c-.034.144-.076.283-.102.427-.063.347-.108.697-.18 1.045-.22 1.046.292 2.277 1.476 2.565.262.063.523.167.785.238a.557.557 0 0 0 .719-.392v.01zM114.537 15.867h.62c1.1.055 2.214.029 3.296.196 1.208.186 1.906 1.156 2.037 2.526a2.74 2.74 0 0 1-1.595 2.716 1.858 1.858 0 0 1-.68.206c-1.194.021-2.392 0-3.66 0 .936 0 .803-.643.8-1.205 0-1.068-.009-2.138-.028-3.21-.003-.881-.021-.897-.79-1.229zm1.618 5.317c1.569.325 2.643-.057 3.069-1.145.19-.542.264-1.118.217-1.691a2.334 2.334 0 0 0-1.918-2.138c-.34-.06-.69-.044-1.023.047-.136.034-.326.224-.329.345-.024 1.519-.016 3.045-.016 4.582zM99.234 15.973c1.109 0 2.209-.057 3.299.021a1.385 1.385 0 0 1 1.253 1.284c.052.609-.283 1.095-.965 1.399-.12.054-.246.104-.465.198.894.93 1.265 2.3 2.705 2.64a1.623 1.623 0 0 1-1.999-.522c-.427-.573-.881-1.122-1.287-1.707-.235-.34-.502-.413-.943-.262.006.684.049 1.368.13 2.047.032.199.403.345.581.486h-2.217c.797-.078.732-.669.724-1.226-.021-1.121-.039-2.24-.063-3.361-.015-.787-.015-.787-.753-.996zm1.603 2.709c.261 0 .465.018.661 0 .905-.1 1.425-.69 1.307-1.475-.099-.7-.784-1.119-1.631-.975-.125.021-.321.178-.327.277-.023.704-.01 1.41-.01 2.173zM17.393 9.092c.925.95 1.307 2.304 2.732 2.633a1.618 1.618 0 0 1-2.045-.554c-.402-.547-.839-1.07-1.223-1.629a.703.703 0 0 0-.876-.342c-.03.697-.02 1.395.031 2.091.024.196.432.345.641.5h-2.277c.902-.087.722-.767.722-1.331 0-1.046 0-2.105-.024-3.158 0-.884-.026-.9-.693-1.116.999 0 2.092-.06 3.187.02a1.344 1.344 0 0 1 1.26 1.206c.063.729-.248 1.192-1.02 1.51-.094.05-.183.082-.415.17zM15.887 7.64h.02c0 .322-.015.646 0 .965 0 .102.119.261.2.282.852.105 1.952-.363 1.728-1.53-.126-.658-.748-1.032-1.569-.93-.693.089-.287.627-.382.96-.01.084-.008.169.003.253zM49.236 11.821c-.476 0-.957.02-1.43 0-.115 0-.236-.175-.325-.293-.496-.646-.995-1.289-1.469-1.95a.784.784 0 0 0-.938-.371c-.034.649-.024 1.3.029 1.947.033.262.392.463.564.651h-2.183c.246-.14.547-.214.657-.4.095-.25.128-.518.096-.784 0-1.119-.007-2.238-.02-3.36 0-.804-.035-.83-.667-1.045 1.009 0 2.104-.06 3.189.024a1.378 1.378 0 0 1 1.244 1.231c.058.677-.261 1.15-1.016 1.47-.105.046-.212.09-.414.174.89.926 1.276 2.27 2.683 2.706zm-4.204-2.876a7.09 7.09 0 0 0 1.025-.12 1.195 1.195 0 0 0 .891-1.568 1.336 1.336 0 0 0-1.702-.785.45.45 0 0 0-.204.343c-.018.661-.01 1.346-.01 2.13zM109.66 21.729c-1.692 0-2.902-1.245-2.91-2.999a2.9 2.9 0 0 1 .818-2.099 2.894 2.894 0 0 1 3.204-.645 2.916 2.916 0 0 1 1.581 1.61c.144.36.215.744.209 1.131.007 1.744-1.211 3.002-2.902 3.002zm1.929-2.975c-.026-.225-.044-.617-.115-.996-.199-1.06-.899-1.692-1.851-1.705-.951-.013-1.587.596-1.788 1.684a4.463 4.463 0 0 0 .233 2.648 1.74 1.74 0 0 0 2.831.588c.604-.557.664-1.307.69-2.22zM51.347 21.721l-3.973-4.614V20.521c0 .764.063.837.758 1.046h-1.984c.09-.049.184-.086.282-.112a.54.54 0 0 0 .573-.625c0-1.307.02-2.614-.042-3.921 0-.262-.34-.523-.57-.745-.123-.113-.345-.118-.523-.173.523-.29 1.485-.157 1.851.262 1.01 1.17 2.01 2.352 3.017 3.52.076.09.162.17.3.317.027-.14.046-.283.055-.426 0-.884-.007-1.767-.02-2.65 0-.523-.016-1.046-.753-1.114h1.858c-.74.05-.742.551-.734 1.098.018 1.375.015 2.75.02 4.127v.523l-.115.073zM59.357 15.973l.165 1.626a1.87 1.87 0 0 1-.233-.261c-.523-1.004-1.192-1.394-2.201-1.276-.933.11-1.608.753-1.83 1.801a3.514 3.514 0 0 0 .363 2.512 2.19 2.19 0 0 0 2.777.926.62.62 0 0 0 .305-.44c.032-.488 0-.982 0-1.476a.758.758 0 0 0-.724-.832h2.162c-.523.12-.58.523-.58.962 0 .44 0 .853.031 1.274a.562.562 0 0 1-.405.653c-1.516.635-3.398.322-4.298-.737a2.72 2.72 0 0 1-.462-3.038c.491-1.132 1.356-1.83 2.614-1.877.523-.018 1.059.178 1.592.262.243-.004.485-.03.724-.079zM92.887 21.576c.656-.2.742-.29.737-.98 0-1.223-.047-2.447-.047-3.66 0-.549-.136-.938-.784-.988a.894.894 0 0 1 .261-.065c.884.02 1.768.016 2.646.084.957.073 1.608.784 1.568 1.61-.034.883-.721 1.48-1.735 1.485-.335 0-.67-.04-1.01-.06-.028.707-.018 1.416.032 2.122.018.178.431.314.653.463l-2.32-.01zm1.524-4.104h.016c-.02.303-.015.607.013.91a.523.523 0 0 0 .303.36 1.168 1.168 0 0 0 1.25-.34 1.307 1.307 0 0 0 .17-1.427 1.166 1.166 0 0 0-1.098-.758c-.575-.028-.656.053-.654.646v.61zM40.533 8.05v1.829c-.452-1.365-1.477-.711-2.313-.93 0 .815-.018 1.552.018 2.287 0 .11.24.261.392.3.184.028.371.034.557.019.944.05 1.83 0 2.212-1.156l.16.134c-.145.402-.28.81-.445 1.205-.024.06-.17.096-.262.096H36.67c-.021 0-.04-.039-.06-.06.74-.261.74-.261.731-1.105 0-1.187-.034-2.377-.018-3.564 0-.522-.133-.868-.73-.94a2.68 2.68 0 0 1 .351-.048c1.187 0 2.376.016 3.566 0 .42 0 .588.123.557.541-.003.226.01.451.039.675-.262-.322-.437-.672-.711-.81-.275-.14-.662-.076-.999-.087h-1.202v2.248c.533.04 1.068.03 1.6-.028.282-.045.499-.395.74-.607zM122.206 15.906h2.614c-.839.327-.849.327-.834 1.219.019.998.029 2.002.102 2.998.063.82.552 1.226 1.383 1.255 1.009.036 1.767-.38 1.83-1.15.083-1.2.098-2.402.045-3.603 0-.261-.387-.507-.563-.719h1.807c-.277.15-.58.22-.698.408-.101.248-.14.517-.115.784-.034 1.046-.013 2.092-.092 3.137-.06.847-.661 1.307-1.437 1.425a4.776 4.776 0 0 1-1.569-.018c-.902-.157-1.414-.784-1.456-1.705-.042-.92-.063-1.898-.084-2.85-.026-.88-.021-.88-.933-1.18zM145.16 21.57v-1.675l.071-.023c.054.143.112.287.162.431a1.715 1.715 0 0 0 2.133 1.061c.727-.232.933-.972.397-1.518a3.333 3.333 0 0 0-.706-.49c-.421-.26-.862-.47-1.278-.731-.808-.523-1.085-1.187-.797-1.872a1.74 1.74 0 0 1 1.989-.962c.171.06.346.112.523.154.282.026.567 0 .881 0v1.718l-.071.02c-.06-.175-.115-.352-.18-.522-.29-.753-1.022-1.224-1.767-1.022a1.166 1.166 0 0 0-.737.64.976.976 0 0 0 .337.85c.54.379 1.107.718 1.696 1.014.955.523 1.344 1.176 1.13 1.934-.215.759-.939 1.187-1.943 1.143-.384-.018-.758-.165-1.142-.212a3.54 3.54 0 0 0-.698.063zM26.744 10.462c-.139.413-.262.784-.395 1.14a.395.395 0 0 1-.283.214h-4.331c.303-.178.606-.261.716-.442a1.7 1.7 0 0 0 .089-.784c0-1.155-.011-2.31-.034-3.464 0-.745-.052-.784-.784-.993.133-.016.261-.044.402-.047h3.414c.701 0 .701 0 .738.674v.5h-.108c-.183-.785-.726-.926-1.427-.87-.45.036-.907 0-1.39 0v2.29a9.21 9.21 0 0 0 1.683-.03c.261-.052.48-.415.693-.616v1.704c-.186-.813-.813-.784-1.412-.763-1.07.018-.98-.202-.952.967 0 .358.042.713.03 1.069 0 .413.2.536.566.523.262 0 .523-.013.764 0 .784.05 1.438-.188 1.8-.954a.405.405 0 0 1 .1-.113.662.662 0 0 1 .12-.005zM36.983 21.877c-.473-1.02-.88-1.89-1.286-2.763-.342-.74-.698-1.472-1.014-2.222-.19-.45-.431-.808-.944-.962h2.337c-.734.402-.747.418-.405 1.174.489 1.076.988 2.148 1.548 3.356.149-.348.245-.57.34-.784.363-.876.737-1.75 1.082-2.633.261-.685.222-.753-.426-1.1h1.702c-.57.248-.743.77-.952 1.27-.565 1.361-1.133 2.723-1.704 4.084-.063.14-.139.284-.278.58zM135.712 20.257c-.432 1.108-1.373 1.569-2.763 1.456a2.728 2.728 0 0 1-2.372-2.091c-.29-1.242 0-2.353.976-3.179a2.771 2.771 0 0 1 3.137-.405c.36.167.567.063.828-.23.053.59.102 1.184.154 1.775l-.075.026a8.911 8.911 0 0 0-.502-.829 1.953 1.953 0 0 0-3.32.387 4.084 4.084 0 0 0-.178 2.596 1.894 1.894 0 0 0 1.521 1.535c.824.18 1.592.054 2.199-.604.139-.134.264-.288.395-.437zM.013 6.102c1.323 0 2.646 0 3.966.013.115 0 .3.196.324.324.036.291.028.586-.024.876-.54-1.425-1.714-.738-2.674-.936v2.235c1.046.277 1.503.123 1.95-.745v1.856c-.316-1.14-1.244-.523-1.955-.722-.035.724-.024 1.45.034 2.173.031.243.431.439.62.617H0c.243-.141.565-.22.677-.416a1.83 1.83 0 0 0 .086-.847c0-1.121-.036-2.24-.026-3.362C.742 6.63.633 6.23.013 6.102zM32.003 10.715c.538-1.364 1.046-2.614 1.503-3.887.058-.162-.261-.46-.408-.68h1.425c-.29.411-.552.84-.784 1.287-.61 1.38-1.171 2.781-1.757 4.182-.05.118-.123.228-.243.442-.136-.274-.235-.46-.324-.65-.651-1.418-1.307-2.835-1.948-4.257-.201-.444-.415-.852-.951-.998h2.235c-.168.17-.445.324-.476.523.002.269.075.533.212.765.47 1.036.954 2.079 1.516 3.273zM142.75 17.19c-.544-1.16-.98-.988-2-.923 0 .139-.034.285-.034.429v3.822c0 .753.065.826.756 1.061h-2.283c.934-.086.714-.784.717-1.364 0-1.12 0-2.24-.019-3.362 0-.183-.018-.369-.026-.539-1.064-.285-1.568-.057-2.044.818.026-.376.042-.753.091-1.124 0-.055.191-.125.296-.125h4.182a.444.444 0 0 1 .338.261c.031.348.04.697.026 1.046zM22.64 21.618c.702-.261.731-.298.729-1.045 0-1.206 0-2.41-.021-3.616 0-.727-.058-.784-.753-1.027h2.567c-1.001.337-1.001.337-1.001 1.383 0 1.087.014 2.174.044 3.26 0 .606.105.687.73.695h.203c1.01.063 1.966 0 2.353-1.234l.102.105c-.13.423-.246.852-.397 1.267a.395.395 0 0 1-.293.207c-1.435.008-2.844.005-4.264.005zM31.922 21.584H29.57l-.018-.065c.096-.026.216-.021.282-.078.167-.155.442-.335.444-.523.026-1.44 0-2.876 0-4.327 0-.491-.394-.549-.737-.7h2.502c-.907.287-.918.292-.91 1.145 0 1.17.024 2.352.037 3.513 0 .742.05.808.752 1.035zM41.88 21.566c.726-.217.752-.248.752-1.03 0-1.19 0-2.379-.018-3.569 0-.744-.063-.797-.76-1.045h2.389c-.8.298-.808.303-.8 1.168 0 1.156.031 2.311.044 3.467 0 .753.032.784.748 1.004l-2.355.005zM9.438 11.94c-1.691 0-2.902-1.247-2.91-2.999A2.889 2.889 0 0 1 9.426 5.97a2.925 2.925 0 0 1 2.92 2.98c.005 1.733-1.213 2.99-2.907 2.99zm1.932-2.975c-.026-.225-.047-.617-.118-.999-.198-1.046-.899-1.689-1.85-1.702-.952-.013-1.587.596-1.789 1.684a4.46 4.46 0 0 0 .233 2.648 1.742 1.742 0 0 0 2.831.59c.607-.559.675-1.301.693-2.221z" fill="#2D2928"></path> </svg> 